<?xml version="1.0" standalone="no"?>
<!DOCTYPE svg PUBLIC "-//W3C//DTD SVG 20010904//EN"
 "http://www.w3.org/TR/2001/REC-SVG-20010904/DTD/svg10.dtd">
<svg version="1.0" xmlns="http://www.w3.org/2000/svg"
 width="120.000000pt" height="120.000000pt" viewBox="0 0 120.000000 120.000000"
 preserveAspectRatio="xMidYMid meet">
<metadata>
Created by potrace 1.14, written by Peter Selinger 2001-2017
</metadata>
<g transform="translate(0.000000,120.000000) scale(0.100000,-0.100000)"
fill="#000000" stroke="none">
<path d="M483 993 l-33 -4 0 -395 c0 -217 1 -394 3 -394 2 0 93 14 202 30 109
17 203 30 207 30 4 0 8 20 8 45 0 29 -4 45 -12 45 -7 0 -71 -9 -143 -20 -71
-11 -133 -20 -137 -20 -5 0 -8 155 -8 345 l0 345 -27 -2 c-16 0 -43 -3 -60 -5z"/>
</g>
</svg>
